<svg xmlns="http://www.w3.org/2000/svg" xmlns:xlink="http://www.w3.org/1999/xlink" width="500" zoomAndPan="magnify" viewBox="0 0 375 374.999991" height="500" preserveAspectRatio="xMidYMid meet" version="1.0"><defs><clipPath id="7924801de4"><path d="M 62.128906 37.5 L 312.628906 37.5 L 312.628906 288 L 62.128906 288 Z M 62.128906 37.5 " clip-rule="nonzero"/></clipPath></defs><path fill="#0d4bde" d="M 230.402344 116.257812 L 199.523438 86.828125 L 202.703125 102.144531 L 154.671875 102.144531 L 131.941406 141.449219 L 148.25 141.449219 L 162.820312 116.257812 L 230.402344 116.257812 " fill-opacity="1" fill-rule="nonzero"/><g clip-path="url(#7924801de4)"><path fill="#0d4bde" d="M 187.515625 287.746094 C 256.621094 287.746094 312.648438 231.722656 312.648438 162.613281 C 312.648438 93.503906 256.621094 37.480469 187.515625 37.480469 C 125.621094 37.480469 74.222656 82.417969 64.164062 141.449219 L 78.476562 141.449219 C 88.359375 90.238281 133.414062 51.554688 187.515625 51.554688 C 248.851562 51.554688 298.578125 101.277344 298.578125 162.613281 C 298.578125 223.953125 248.851562 273.675781 187.515625 273.675781 C 128.546875 273.675781 80.324219 227.71875 76.679688 169.671875 L 123.832031 169.671875 L 154.671875 223.085938 L 202.703125 223.085938 L 199.523438 238.402344 L 230.402344 208.972656 L 162.820312 208.972656 L 140.085938 169.671875 L 250.925781 169.671875 L 245.59375 184.238281 L 270.75 162.613281 L 245.59375 140.992188 L 250.925781 155.558594 L 62.578125 155.558594 C 62.449219 157.894531 62.382812 160.246094 62.382812 162.613281 C 62.382812 163.191406 62.386719 163.765625 62.394531 164.347656 C 62.394531 164.433594 62.394531 164.523438 62.398438 164.617188 C 62.40625 165.117188 62.417969 165.617188 62.433594 166.113281 C 62.433594 166.167969 62.433594 166.222656 62.433594 166.277344 C 62.449219 166.816406 62.472656 167.359375 62.492188 167.902344 C 62.492188 167.917969 62.496094 167.929688 62.496094 167.941406 C 62.515625 168.515625 62.546875 169.089844 62.578125 169.660156 C 62.578125 169.664062 62.578125 169.667969 62.578125 169.671875 C 66.238281 235.496094 120.773438 287.746094 187.515625 287.746094 " fill-opacity="1" fill-rule="nonzero"/></g><path fill="#737373" d="M 175.628906 63.777344 C 230.214844 63.777344 274.464844 108.03125 274.464844 162.613281 C 274.464844 217.199219 230.214844 261.449219 175.628906 261.449219 C 160.363281 261.449219 145.917969 257.992188 133.011719 251.8125 C 148.835938 261.46875 167.433594 267.035156 187.324219 267.035156 C 244.996094 267.035156 291.75 220.285156 291.75 162.613281 C 291.75 104.945312 244.996094 58.195312 187.324219 58.195312 C 167.433594 58.195312 148.835938 63.757812 133.011719 73.417969 C 145.917969 67.242188 160.363281 63.777344 175.628906 63.777344 " fill-opacity="1" fill-rule="nonzero"/></svg>