<svg xmlns="http://www.w3.org/2000/svg" xmlns:xlink="http://www.w3.org/1999/xlink" width="500" zoomAndPan="magnify" viewBox="0 0 375 374.999991" height="500" preserveAspectRatio="xMidYMid meet" version="1.0"><defs><g/><clipPath id="3d9017e6f4"><path d="M 87.519531 37.5 L 287.769531 37.5 L 287.769531 237.75 L 87.519531 237.75 Z M 87.519531 37.5 " clip-rule="nonzero"/></clipPath></defs><path fill="#0d4bde" d="M 221.878906 100.609375 L 197.136719 77.027344 L 199.683594 89.300781 L 161.195312 89.300781 L 142.984375 120.796875 L 156.050781 120.796875 L 167.726562 100.609375 L 221.878906 100.609375 " fill-opacity="1" fill-rule="nonzero"/><g clip-path="url(#3d9017e6f4)"><path fill="#0d4bde" d="M 187.515625 238.027344 C 242.890625 238.027344 287.785156 193.132812 287.785156 137.757812 C 287.785156 82.378906 242.890625 37.484375 187.515625 37.484375 C 137.917969 37.484375 96.730469 73.496094 88.671875 120.796875 L 100.136719 120.796875 C 108.058594 79.757812 144.164062 48.761719 187.515625 48.761719 C 236.664062 48.761719 276.511719 88.605469 276.511719 137.757812 C 276.511719 186.90625 236.664062 226.753906 187.515625 226.753906 C 140.261719 226.753906 101.617188 189.925781 98.699219 143.414062 L 136.484375 143.414062 L 161.195312 186.214844 L 199.683594 186.214844 L 197.136719 198.484375 L 221.878906 174.90625 L 167.726562 174.90625 L 149.507812 143.414062 L 238.324219 143.414062 L 234.054688 155.085938 L 254.210938 137.757812 L 234.054688 120.429688 L 238.324219 132.101562 L 87.398438 132.101562 C 87.296875 133.976562 87.242188 135.859375 87.242188 137.757812 C 87.242188 138.21875 87.246094 138.679688 87.25 139.144531 C 87.253906 139.214844 87.253906 139.285156 87.257812 139.359375 C 87.261719 139.761719 87.273438 140.160156 87.28125 140.5625 C 87.28125 140.605469 87.285156 140.648438 87.285156 140.691406 C 87.296875 141.125 87.3125 141.558594 87.332031 141.992188 C 87.332031 142.003906 87.335938 142.015625 87.335938 142.023438 C 87.351562 142.484375 87.375 142.945312 87.398438 143.402344 C 87.398438 143.40625 87.398438 143.410156 87.398438 143.414062 C 90.332031 196.160156 134.03125 238.027344 187.515625 238.027344 " fill-opacity="1" fill-rule="nonzero"/></g><path fill="#737373" d="M 177.988281 58.558594 C 221.730469 58.558594 257.1875 94.015625 257.1875 137.757812 C 257.1875 181.496094 221.730469 216.957031 177.988281 216.957031 C 165.757812 216.957031 154.179688 214.183594 143.839844 209.230469 C 156.519531 216.972656 171.421875 221.429688 187.363281 221.429688 C 233.574219 221.429688 271.039062 183.96875 271.039062 137.757812 C 271.039062 91.546875 233.574219 54.082031 187.363281 54.082031 C 171.421875 54.082031 156.519531 58.542969 143.839844 66.28125 C 154.179688 61.332031 165.757812 58.558594 177.988281 58.558594 " fill-opacity="1" fill-rule="nonzero"/><g fill="#737373" fill-opacity="1"><g transform="translate(116.971223, 295.303457)"><g><path d="M 22.28125 0 L 1.234375 0 L 1.234375 -32.921875 L 22.28125 -32.921875 L 22.28125 -29.96875 L 4.6875 -29.96875 L 4.6875 -18.1875 L 17.65625 -18.1875 L 17.65625 -15.234375 L 4.6875 -15.234375 L 4.6875 -2.953125 L 22.28125 -2.953125 Z M 22.28125 0 "/></g></g></g><g fill="#737373" fill-opacity="1"><g transform="translate(145.176685, 295.303457)"><g><path d="M 23.515625 -21.796875 L 20.5625 -21.796875 L 20.5625 -29.96875 L 13.5 -29.96875 L 13.5 -2.953125 L 18.796875 -2.953125 L 18.796875 0 L 4.6875 0 L 4.6875 -2.953125 L 10.015625 -2.953125 L 10.015625 -29.96875 L 2.953125 -29.96875 L 2.953125 -21.796875 L 0 -21.796875 L 0 -32.921875 L 23.515625 -32.921875 Z M 23.515625 -21.796875 "/></g></g></g><g fill="#737373" fill-opacity="1"><g transform="translate(173.382147, 295.303457)"><g><path d="M 18.796875 0 L 4.6875 0 L 4.6875 -2.953125 L 10.015625 -2.953125 L 10.015625 -29.96875 L 4.6875 -29.96875 L 4.6875 -32.921875 L 18.796875 -32.921875 L 18.796875 -29.96875 L 13.5 -29.96875 L 13.5 -2.953125 L 18.796875 -2.953125 Z M 18.796875 0 "/></g></g></g><g fill="#737373" fill-opacity="1"><g transform="translate(201.587609, 295.303457)"><g><path d="M 22.28125 0 L 18.796875 0 L 18.796875 -27.421875 L 12.96875 -10.453125 L 10.5 -10.453125 L 4.6875 -27.421875 L 4.6875 0 L 1.234375 0 L 1.234375 -32.921875 L 5.734375 -32.921875 L 11.734375 -15.71875 L 17.78125 -32.921875 L 22.28125 -32.921875 Z M 22.28125 0 "/></g></g></g><g fill="#737373" fill-opacity="1"><g transform="translate(229.793071, 295.303457)"><g><path d="M 24.390625 -16.421875 C 24.390625 -14.222656 24.160156 -12.097656 23.703125 -10.046875 C 23.253906 -7.992188 22.535156 -6.179688 21.546875 -4.609375 C 20.554688 -3.046875 19.253906 -1.789062 17.640625 -0.84375 C 16.035156 0.101562 14.082031 0.578125 11.78125 0.578125 C 9.476562 0.578125 7.519531 0.101562 5.90625 -0.84375 C 4.300781 -1.789062 3 -3.046875 2 -4.609375 C 1 -6.179688 0.28125 -7.992188 -0.15625 -10.046875 C -0.601562 -12.097656 -0.828125 -14.222656 -0.828125 -16.421875 C -0.828125 -18.628906 -0.601562 -20.757812 -0.15625 -22.8125 C 0.28125 -24.863281 1.007812 -26.675781 2.03125 -28.25 C 3.050781 -29.832031 4.363281 -31.097656 5.96875 -32.046875 C 7.570312 -33.003906 9.507812 -33.484375 11.78125 -33.484375 C 14.050781 -33.484375 15.988281 -33.003906 17.59375 -32.046875 C 19.195312 -31.097656 20.492188 -29.832031 21.484375 -28.25 C 22.484375 -26.675781 23.21875 -24.863281 23.6875 -22.8125 C 24.15625 -20.757812 24.390625 -18.628906 24.390625 -16.421875 Z M 20.921875 -16.421875 C 20.921875 -18.597656 20.710938 -20.554688 20.296875 -22.296875 C 19.890625 -24.035156 19.296875 -25.519531 18.515625 -26.75 C 17.742188 -27.976562 16.789062 -28.914062 15.65625 -29.5625 C 14.519531 -30.207031 13.226562 -30.53125 11.78125 -30.53125 C 9.976562 -30.53125 8.492188 -30.109375 7.328125 -29.265625 C 6.160156 -28.421875 5.222656 -27.316406 4.515625 -25.953125 C 3.804688 -24.597656 3.3125 -23.085938 3.03125 -21.421875 C 2.757812 -19.753906 2.625 -18.085938 2.625 -16.421875 C 2.625 -14.773438 2.757812 -13.113281 3.03125 -11.4375 C 3.3125 -9.769531 3.804688 -8.265625 4.515625 -6.921875 C 5.222656 -5.585938 6.160156 -4.492188 7.328125 -3.640625 C 8.492188 -2.796875 9.976562 -2.375 11.78125 -2.375 C 13.5625 -2.375 15.039062 -2.796875 16.21875 -3.640625 C 17.394531 -4.492188 18.335938 -5.585938 19.046875 -6.921875 C 19.753906 -8.265625 20.242188 -9.769531 20.515625 -11.4375 C 20.785156 -13.113281 20.921875 -14.773438 20.921875 -16.421875 Z M 20.921875 -16.421875 "/></g></g></g></svg>